<svg xmlns="http://www.w3.org/2000/svg" data-name="Layer 1" viewBox="0 0 408.11 257.56"><path d="m304.54 7.18 7.67-2.69c17.18-6 37.4-5.91 54.63-.14 14 4.67 29.93 14.84 31.35 31l.25 2.73-22 28v.11L364.71 81a23.66 23.66 0 1 1 14.92 44.81C400 151 391 195.13 347.76 201.8l-.52.08H288.3V150.7h19c-.86-.59-1.7-1.21-2.54-1.87l-.13-.1-.12-.11c-8.17-7.07-13.18-15.24-15.17-24.46a81.211 81.211 0 0 1-4.11 5l-2.07 2.39h-12.22v70.37H193.6a42.82 42.82 0 0 1-36.92-25.43v25.44h-52V177.3a58.49 58.49 0 0 1-6.38 9l-.13.15-.14.15a52.59 52.59 0 0 1-56 12.89c-18.52-6.88-30-23-32.22-42.44V69.66h52.56l.12 31.07A51.29 51.29 0 0 1 104 125c.23.36.45.72.66 1.09v-21.63h3.18a35.64 35.64 0 0 1-14.19-28.07l-.07-7h59.18v-.3h49.32a42 42 0 0 1 25.34-37l-16.83 1.82L252 15.78a104.61 104.61 0 0 1 52.5-8.6M204.79 85.4V98h7.62a42 42 0 0 1-7.62-12.63m63.46 19.05h1.54l.07-1.22q-.79.63-1.6 1.22m7.07-6.42h15.34l.06-.32 43.69.13c1-44.3-35.75-73.46-78.88-68.79l-3.81.41A41.81 41.81 0 0 1 275.33 98m-124.61 6.46h2v-1.66q-1 .86-2 1.65m68.18 46.24v-9.48h-14.11v9a1 1 0 0 0 .36.53Zm131.86-41.45a23.58 23.58 0 0 1-.84-6.27v-.21l-5 5.29a18.8 18.8 0 0 0 3.12.78q1.37.18 2.7.42" fill="#fff" fill-rule="evenodd"/><path d="M373.56 86.24A16.74 16.74 0 1 1 356.84 103a16.77 16.77 0 0 1 16.73-16.74m0 2.67A14.07 14.07 0 1 0 387.62 103a14.09 14.09 0 0 0-14.05-14.07" fill="#034ea1" fill-rule="evenodd"/><path d="M366.67 112V94.1h9.26a5.58 5.58 0 0 1 4.69 1.9 4.91 4.91 0 0 1 1.07 3.11 4.78 4.78 0 0 1-.76 2.67 3.87 3.87 0 0 1-2.1 1.61 3.66 3.66 0 0 1 1.73 1.24 6.49 6.49 0 0 1 .61 3.29c0 1.22 0 2.08.06 2.56a1.06 1.06 0 0 0 .75 1v.5h-4.23a10.21 10.21 0 0 1-.31-1.47 17.63 17.63 0 0 1-.1-2.17 5.07 5.07 0 0 0-.43-2.61q-.56-.77-2.57-.77h-3.92v7Zm3.76-10h4.48a3.56 3.56 0 0 0 2.24-.57 2.67 2.67 0 0 0 .2-3.38 2.7 2.7 0 0 0-2.19-.82h-4.74ZM254.81 22.13c46.7-5.05 88.6 26.89 86.5 77.4l27.48-34.81C356.43 23.27 305.6 0 254.81 22.13m13.75 102.53c4.73-5.77 7.71-12.24 8.14-19.74h16.14c-3 7.36-8.52 14.78-12.83 19.75Zm27.81-20.04c-3.74 18.1 2.58 30 12.67 38.77a39.7 39.7 0 0 0 27.35 8.61c3.83.14 4.45 5.44.16 5.67h-41.32V195h51.47c50.57-7.81 46.36-73.28.46-79.26-3.56-.45-15.51-3.64-8.62-11Z" fill="#034ea1" fill-rule="evenodd"/><path d="M225.83 111.38h38.19v83.64h-38.19z" fill="#034ea1"/><path d="M159.67 76h38.19v29h18.45v29.33h-18.44v16.42c.41 3.88 3 5.83 5.75 6.92h18.08L216.44 195h-22.5c-18.27-.91-33.36-15.76-34.27-35.26Z" fill="#034ea1" fill-rule="evenodd"/><path d="M111.56 111.38h38.19v83.64h-38.19z" fill="#034ea1"/><path d="M158 76.32a28.71 28.71 0 0 1-57.41 0Zm-141.41.25v79.71C21.14 196.5 67.75 207.9 93 181.79c27.22-31.67 3.34-73.71-32-74.13v36.7c8.35-.2 9 7.78 5.89 11.11-4.06 3.48-9.95 2.35-11.26-3.36l-.3-75.49Z" fill="#034ea1" fill-rule="evenodd"/><path d="M243.86 35.6A34.91 34.91 0 1 1 209 70.51a35 35 0 0 1 34.86-34.91M314.5 11c31.21.78 57.62 18.82 58.63 48l18.17-23.09C389.37 14.1 347.76-.64 314.5 11" fill="#ec1c24" fill-rule="evenodd"/><path d="M17.84 222.4h3.53v26.92h-4.05L3.6 227.58l-.07 21.74H0V222.4l4.34.01 13.43 21.74.07-21.75zm13.44 13.26H28.2a5.83 5.83 0 0 1 2.25-5 9.83 9.83 0 0 1 5.85-1.5 10 10 0 0 1 4.2.83 4.76 4.76 0 0 1 3.08 4.65v11.24q0 1.2 1.13 1.2l1.05-.14v2.4l-.88.24a3.43 3.43 0 0 1-.92.13 3.6 3.6 0 0 1-2.81-.94 3 3 0 0 1-.64-2.06 11.13 11.13 0 0 1-2.59 2.1 9.17 9.17 0 0 1-4.54 1.13 6.32 6.32 0 0 1-4.38-1.6 5.32 5.32 0 0 1-1.73-4.13 6.08 6.08 0 0 1 .94-3.41 6.66 6.66 0 0 1 5.06-2.73l5.4-.68a1.83 1.83 0 0 0 1.16-.45 2.58 2.58 0 0 0 .56-1.88q0-3.22-4.58-3.22a4.38 4.38 0 0 0-3.56 1.35 5.17 5.17 0 0 0-.94 2.47m9.07 6.79v-3.19a3.59 3.59 0 0 1-1.47.63q-1.05.26-3.68.59a7.41 7.41 0 0 0-3.57 1.11 2.52 2.52 0 0 0-.94 2 3.51 3.51 0 0 0 .85 2.54 3.65 3.65 0 0 0 2.7.87 7.12 7.12 0 0 0 4.27-1.33 3.93 3.93 0 0 0 1.85-3.26m-4.43-18.44-2.48 3.46-2.93-.01 3.68-5.25h3.52l3.68 5.25-3-.01-2.47-3.44zM66.29 236v13.35H63v-12.1a6.63 6.63 0 0 0-.86-3.86 3.89 3.89 0 0 0-3.34-1.31 4.64 4.64 0 0 0-3.26 1.24q-1.91 1.72-1.91 5.29v10.72h-3.3v-19.66h3.07v2.78a11 11 0 0 1 2-2 6.72 6.72 0 0 1 4-1.28 7.58 7.58 0 0 1 4.6 1.24q2.29 1.69 2.29 5.55m22.27-6.29v18a12.7 12.7 0 0 1-1.16 6q-2.1 3.9-8 3.9a9.16 9.16 0 0 1-4.35-.94 6.09 6.09 0 0 1-3.15-4.9h3.3a3.56 3.56 0 0 0 1.44 2.34 5.09 5.09 0 0 0 3 .8q3.6 0 4.87-2.47a9.61 9.61 0 0 0 .75-4.27v-1l-.07.15a5.4 5.4 0 0 1-2 1.87 6.46 6.46 0 0 1-3.3.82 7.51 7.51 0 0 1-6.83-3.71 13.74 13.74 0 0 1-1.8-7.31 10.89 10.89 0 0 1 2.19-7 7.23 7.23 0 0 1 6-2.76 6.45 6.45 0 0 1 4 1.2 8.78 8.78 0 0 1 1.87 2.1l.07-2.77Zm-13.79 9.74a10.05 10.05 0 0 0 1.33 5.49A4.34 4.34 0 0 0 80 247a4.94 4.94 0 0 0 3.48-1.31 6.84 6.84 0 0 0 1.91-5.28 13.62 13.62 0 0 0-.86-5.32 5 5 0 0 0-9-.26 11.38 11.38 0 0 0-.75 4.61m46.48-3.44v13.35H118v-12.1a6.63 6.63 0 0 0-.86-3.86 3.89 3.89 0 0 0-3.34-1.31 4.64 4.64 0 0 0-3.26 1.24q-1.91 1.72-1.91 5.29v10.72h-3.3v-19.66h3.07v2.78a11 11 0 0 1 2-2 6.73 6.73 0 0 1 4-1.28 7.59 7.59 0 0 1 4.61 1.28q2.28 1.69 2.29 5.55m9.33-9.84h-3.3v-3.76h3.3Zm0 23.16h-3.3v-19.65h3.3Zm21.45 0h-3.16v-2.86l-.14-.07a7.39 7.39 0 0 1-2.5 2.64 7 7 0 0 1-3.69.88 6.77 6.77 0 0 1-4.21-1.27 5.73 5.73 0 0 1-2.13-4.87v-14.1h3.3v13a4.46 4.46 0 0 0 1.09 3.34 3.7 3.7 0 0 0 2.74.94 4.73 4.73 0 0 0 4.24-2.18 7.72 7.72 0 0 0 1.17-4.35v-10.8h3.3Zm19.92 0h-3.16V222.4h3.3v9.74a6.85 6.85 0 0 1 5.77-3 7.33 7.33 0 0 1 6 2.81 10.74 10.74 0 0 1 2.14 6.94 13.8 13.8 0 0 1-1.8 7.28 7.48 7.48 0 0 1-6.82 3.75 6.06 6.06 0 0 1-3.71-1.09 6.83 6.83 0 0 1-1.69-2Zm10.63-9.9a11.28 11.28 0 0 0-.75-4.57 4.6 4.6 0 0 0-4.56-2.77 4.5 4.5 0 0 0-4.45 3 13.71 13.71 0 0 0-.86 5.36 6.79 6.79 0 0 0 1.91 5.25 5 5 0 0 0 3.48 1.35 4.35 4.35 0 0 0 3.93-2.06 10.2 10.2 0 0 0 1.31-5.51m11.44-3.81H191a5.83 5.83 0 0 1 2.25-5 9.83 9.83 0 0 1 5.85-1.5 10 10 0 0 1 4.2.83 4.76 4.76 0 0 1 3.07 4.65v11.24c0 .8.38 1.2 1.13 1.2l1-.14v2.4l-.88.24a3.43 3.43 0 0 1-.92.13 3.6 3.6 0 0 1-2.81-.94 3 3 0 0 1-.64-2.06 11.09 11.09 0 0 1-2.59 2.1 9.17 9.17 0 0 1-4.54 1.13 6.32 6.32 0 0 1-4.43-1.57 5.32 5.32 0 0 1-1.73-4.13 6.08 6.08 0 0 1 .94-3.41 6.66 6.66 0 0 1 5.06-2.73l5.4-.68a1.84 1.84 0 0 0 1.16-.45 2.58 2.58 0 0 0 .56-1.88q0-3.22-4.58-3.22a4.38 4.38 0 0 0-3.56 1.35 5.16 5.16 0 0 0-.94 2.47m9.07 6.79v-3.19a3.59 3.59 0 0 1-1.47.63q-1.06.26-3.68.59a7.38 7.38 0 0 0-3.57 1.11 2.52 2.52 0 0 0-.94 2 3.49 3.49 0 0 0 .85 2.54 3.63 3.63 0 0 0 2.7.87 7.12 7.12 0 0 0 4.27-1.33 3.93 3.93 0 0 0 1.85-3.26m-3.83-15.39-4.95-5.27h4.13l3.3 5.27h-2.48zm29.84 8.95v13.35h-3.3v-12.1a6.63 6.63 0 0 0-.86-3.86 3.89 3.89 0 0 0-3.34-1.31 4.65 4.65 0 0 0-3.26 1.24q-1.91 1.72-1.91 5.29v10.72h-3.3v-19.66h3.07v2.78a11 11 0 0 1 2-2 6.72 6.72 0 0 1 4-1.28 7.58 7.58 0 0 1 4.61 1.28q2.29 1.69 2.29 5.55m32.48.26h-3.23a5.2 5.2 0 0 0-1.46-3.09 4.44 4.44 0 0 0-3.19-1.1 4.61 4.61 0 0 0-4.2 2.36 9.77 9.77 0 0 0-1.2 5.06 10.78 10.78 0 0 0 1 5 4.6 4.6 0 0 0 4.41 2.51 4.2 4.2 0 0 0 3-1.24 5.91 5.91 0 0 0 1.69-3.41h3.23a9.22 9.22 0 0 1-2 5 7.41 7.41 0 0 1-6 2.63 8 8 0 0 1-6.41-2.76 10.6 10.6 0 0 1-2.36-7.14 12.13 12.13 0 0 1 2.25-7.72 8.6 8.6 0 0 1 7.2-3.15 6.81 6.81 0 0 1 5.48 2.29 8.37 8.37 0 0 1 1.88 4.84M282 236v13.35h-3.3v-12.86a5.36 5.36 0 0 0-.75-3.22 3.7 3.7 0 0 0-3.15-1.2 5.15 5.15 0 0 0-3.74 1.39 6.89 6.89 0 0 0-1.72 5.14v10.72H266V222.4h3.3v9.89a10.29 10.29 0 0 1 2.06-2 6.44 6.44 0 0 1 3.71-1.13 7.58 7.58 0 0 1 4.61 1.28Q282 232.1 282 236m8.89-.34h-3.07a5.83 5.83 0 0 1 2.25-5 9.84 9.84 0 0 1 5.86-1.5 10 10 0 0 1 4.2.83 4.76 4.76 0 0 1 3.08 4.65v11.24c0 .8.37 1.2 1.13 1.2l1-.14v2.4l-.88.24a3.44 3.44 0 0 1-.92.13 3.61 3.61 0 0 1-2.81-.94 3 3 0 0 1-.63-2.06 11 11 0 0 1-2.59 2.1 9.19 9.19 0 0 1-4.54 1.13 6.33 6.33 0 0 1-4.43-1.57 5.33 5.33 0 0 1-1.72-4.13 6.07 6.07 0 0 1 .94-3.41 6.66 6.66 0 0 1 5.06-2.73l5.4-.68a1.84 1.84 0 0 0 1.16-.45 2.59 2.59 0 0 0 .56-1.88q0-3.22-4.58-3.22a4.38 4.38 0 0 0-3.56 1.35 5.21 5.21 0 0 0-.94 2.47m9.08 6.79v-3.19a3.6 3.6 0 0 1-1.47.63q-1.06.26-3.68.59a7.41 7.41 0 0 0-3.57 1.11 2.52 2.52 0 0 0-.94 2 3.47 3.47 0 0 0 .85 2.54 3.63 3.63 0 0 0 2.7.87 7.13 7.13 0 0 0 4.27-1.33 3.93 3.93 0 0 0 1.85-3.26m-4.38-18.47-2.48 3.46-2.93-.01 3.68-5.25h3.52l3.68 5.25-3-.01-2.47-3.44zM325.9 236v13.35h-3.3v-12.1a6.63 6.63 0 0 0-.86-3.86 3.89 3.89 0 0 0-3.34-1.31 4.66 4.66 0 0 0-3.26 1.24q-1.91 1.72-1.91 5.29v10.72h-3.3v-19.66H313v2.78a10.88 10.88 0 0 1 2-2 6.7 6.7 0 0 1 4-1.28 7.59 7.59 0 0 1 4.61 1.28q2.29 1.69 2.29 5.55m34.71-13.59 4.12-.01-9.82 26.92H351l-9.82-26.92h4.05l7.73 22.91 7.65-22.9zm12.31 3.75h-3.3v-3.76h3.3Zm0 23.16h-3.3v-19.65h3.3Zm18.89-6.14h3.3a7.58 7.58 0 0 1-.87 2.36 8 8 0 0 1-2.66 3 7.66 7.66 0 0 1-1.8.93 11 11 0 0 1-3.52.49 8 8 0 0 1-6.42-2.76 10.6 10.6 0 0 1-2.36-7.14 12.11 12.11 0 0 1 2.25-7.72 8.6 8.6 0 0 1 7.2-3.15 7.14 7.14 0 0 1 6.26 3.06q2.14 3.06 2.14 8.35H381a7.06 7.06 0 0 0 1.44 4.77 6 6 0 0 0 7.93.33 4 4 0 0 0 1.43-2.46m-10.8-5.33h11a6.24 6.24 0 0 0-1.24-4 5.5 5.5 0 0 0-8.1 0 5.86 5.86 0 0 0-1.61 4.08m5.48-13.99-2.53 3.43h-2.94l3.68-5.25h3.53l3.68 5.25h-3Zm1.87 32h-3.3v-3.76h3.3Zm19.71-23.56h-3.16v12.75a1.31 1.31 0 0 0 .72 1.31 3.09 3.09 0 0 0 1.24.19h1.2v2.63l-2.48.3a3.8 3.8 0 0 1-3.23-1.24 5 5 0 0 1-.75-3v-12.9h-2.7v-2.77h2.7v-5.48h3.3v5.48h3.16Z" fill="#ec1c24"/><path d="M0 0h408.11v257.56H0z" fill="none"/></svg>